<svg width="28" height="28" viewBox="0 0 28 28" fill="none" xmlns="http://www.w3.org/2000/svg">
<path fill-rule="evenodd" clip-rule="evenodd" d="M3.46258e-07 2.33928C3.46258e-07 1.71886 0.246459 1.12386 0.685157 0.68516C1.12386 0.246461 1.71886 3.11858e-06 2.33927 3.11858e-06H25.6582C25.9656 -0.000499038 26.2702 0.0596468 26.5544 0.176997C26.8385 0.294347 27.0968 0.466597 27.3143 0.683886C27.5318 0.901174 27.7044 1.15923 27.822 1.44329C27.9397 1.72734 28.0002 2.03182 28 2.33928V25.6582C28.0003 25.9657 27.94 26.2703 27.8225 26.5545C27.705 26.8386 27.5327 27.0969 27.3153 27.3144C27.0979 27.5319 26.8398 27.7044 26.5556 27.8221C26.2715 27.9397 25.967 28.0002 25.6595 28H2.33927C2.03197 28 1.72767 27.9394 1.44378 27.8218C1.15988 27.7042 0.901945 27.5317 0.684707 27.3144C0.467469 27.097 0.295186 26.839 0.177701 26.555C0.0602169 26.2711 -0.000166849 25.9668 3.46258e-07 25.6595V2.33928ZM11.0829 10.6756H14.8744V12.5796C15.4216 11.4851 16.8216 10.5 18.9255 10.5C22.9587 10.5 23.9145 12.6802 23.9145 16.6804V24.0902H19.8329V17.5916C19.8329 15.3135 19.2856 14.028 17.8958 14.028C15.9676 14.028 15.1658 15.414 15.1658 17.5916V24.0902H11.0829V10.6756ZM4.08291 23.9158H8.16582V10.5H4.08291V23.9145V23.9158ZM8.75 6.12437C8.7577 6.47395 8.69549 6.82155 8.56703 7.14677C8.43857 7.47198 8.24645 7.76827 8.00193 8.01822C7.75741 8.26818 7.46543 8.46679 7.14312 8.60237C6.82081 8.73796 6.47467 8.80781 6.125 8.80781C5.77533 8.80781 5.42919 8.73796 5.10688 8.60237C4.78457 8.46679 4.49258 8.26818 4.24807 8.01822C4.00355 7.76827 3.81143 7.47198 3.68297 7.14677C3.55451 6.82155 3.4923 6.47395 3.5 6.12437C3.51511 5.43818 3.79831 4.78519 4.28894 4.30524C4.77958 3.82529 5.43865 3.55653 6.125 3.55653C6.81135 3.55653 7.47042 3.82529 7.96105 4.30524C8.45169 4.78519 8.73489 5.43818 8.75 6.12437Z" fill="#FFFEFB"/>
</svg>
