<svg width="166" height="30" viewBox="0 0 166 30" fill="none" xmlns="http://www.w3.org/2000/svg">
<path d="M0 0.695801H11.9684C18.0732 0.695801 21.9041 3.84833 21.9041 9.59353C21.9041 12.9054 20.0285 15.6983 16.9169 17.2143L23.9799 28.625H15.7218L11.6131 20.9246C10.8939 19.5679 10.0972 19.0102 8.94079 19.0102H6.8671V28.625H0V0.695801ZM11.4107 13.4244C13.844 13.4244 15.2006 12.1474 15.2006 9.95314C15.2006 7.75886 13.844 6.52282 11.4107 6.52282H6.86064V13.4244H11.4107ZM42.3719 13.7022C44.3271 10.7499 46.8401 8.19599 51.7089 8.19599C57.0945 8.19599 61.3237 11.9062 62.0429 17.0528H55.8993C55.3804 15.1385 53.7847 13.9003 51.6701 13.9003C49.3962 13.9003 48.3582 15.1772 46.7217 17.6514L42.9705 23.276C41.2952 25.8299 38.821 29.1009 33.276 29.1009C27.2918 29.1009 22.6233 24.5918 22.6233 18.6485C22.6233 12.703 27.0915 8.19599 33.0758 8.19599C37.5031 8.19814 39.7383 10.0716 42.3719 13.7022ZM33.4332 23.3988C33.7519 23.3988 34.1115 23.3579 34.3915 23.3191C36.028 22.9595 36.9841 21.6825 38.3817 19.6476L39.06 18.6506L38.3817 17.6536C36.7063 15.2203 35.7093 13.9024 33.4332 13.9024C30.7997 13.9024 28.685 15.8577 28.685 18.6506C28.685 21.4435 30.7997 23.3988 33.4332 23.3988ZM63.7957 0.695801H70.1805V14.6195L75.8869 8.67404H83.7876L76.4468 16.3336L84.4272 28.6229H77.1251L72.1379 20.8427L70.1826 22.8777V28.6229H63.7979V0.695801H63.7957ZM83.0253 0.695801H104.611V6.52067H97.2699V28.625H90.4071V6.52067H83.0253V0.695801ZM101.419 18.6506C101.419 12.7051 105.929 8.19815 111.872 8.19815C117.817 8.19815 122.324 12.7073 122.324 18.6506V20.4056H107.722C108.28 22.3609 109.837 23.5969 111.872 23.5969C113.149 23.5969 114.226 23.1188 114.984 22.2812H121.726C120.289 26.3511 116.538 29.1031 111.872 29.1031C105.929 29.1031 101.419 24.5961 101.419 18.6506ZM115.903 16.5748C115.266 14.8198 113.788 13.7022 111.874 13.7022C109.96 13.7022 108.482 14.8198 107.845 16.5748H115.903ZM123.722 18.6506C123.722 12.7051 128.231 8.19815 134.174 8.19815C139.56 8.19815 143.789 11.9084 144.508 17.055H138.365C137.807 15.1406 136.25 13.9024 134.176 13.9024C131.584 13.9024 129.788 15.8577 129.788 18.6506C129.788 21.4435 131.584 23.3988 134.176 23.3988C136.25 23.3988 137.807 22.1628 138.365 20.2463H144.508C143.789 25.3928 139.56 29.1031 134.174 29.1031C128.231 29.1031 123.722 24.5961 123.722 18.6506ZM156.04 13.6634C154.125 13.6634 152.689 15.0997 152.689 17.1734V28.625H146.304V0.695801H152.689V10.2309C154.046 8.95398 155.801 8.19599 157.836 8.19599C161.944 8.19599 165.336 10.8296 165.336 16.1355V28.6229H158.992V17.1712C158.992 15.0997 157.954 13.6634 156.04 13.6634Z" fill="#FFFEFB"/>
<path d="M47.1591 20.4057C48.9141 22.6797 49.952 23.3989 51.6683 23.3989C53.7829 23.3989 55.3785 22.1628 55.8975 20.2463H62.041C61.3218 25.3929 57.1335 29.1031 51.9461 29.1031C48.0764 29.1031 45.7616 27.4666 43.886 25.3132L47.1591 20.4057Z" fill="#00B35B"/>
</svg>
